# xmcd CD database file
#
# Track frame offsets:
#	150
#	11020
#	25565
#	39895
#	54997
#	73765
#	90750
#	105502
#	116795
#	132725
#	148395
#	166060
#
# Disc length: 2369 seconds
#
# Revision: 0
# Processed by: cddbd v1.5.1PL0 Copyright (c) Steve Scherf et al.
# Submitted via: CDex 1.51
#
DISCID=98093f0c
DTITLE=Variés - Danse en ligne Country
DYEAR=1900
DGENRE=Country
TTITLE0=Solid
TTITLE1=Rocky top
TTITLE2=Buckaroo
TTITLE3=Who's cheating who
TTITLE4=All you ever do is bring me down
TTITLE5=Mountain music
TTITLE6=Boot scootin boogie
TTITLE7=Callin baton rouge
TTITLE8=Mercury blues
TTITLE9=I just want to dance with you
TTITLE10=Fast as you
TTITLE11=There goes my heart again
EXTD=
EXTT0=
EXTT1=
EXTT2=
EXTT3=
EXTT4=
EXTT5=
EXTT6=
EXTT7=
EXTT8=
EXTT9=
EXTT10=
EXTT11=
PLAYORDER=
